# xmcd
#
# Track frame offsets:
#	150
#	10764
#	24084
#	36094
#	51429
#	65212
#	77083
#	88129
#	103922
#	118649
#
# Disc length: 1834 seconds
#
# Revision: 0
# Processed by: cddbd v1.5.2PL0 Copyright (c) Steve Scherf et al.
# Submitted via: dBpowerAMP V4.0
#
DISCID=7f07280a
DTITLE=Los Diferentes de la Sierra - El Baile de las Iguanas
DYEAR=2006
DGENRE=Norteño
TTITLE0=El Baile de las Iguanas
TTITLE1=Como te extraño
TTITLE2=Fuga en el Cielo
TTITLE3=La Chula
TTITLE4=El Amor No Tiene Edad
TTITLE5=Amor a Primera Vista
TTITLE6=Cruz de Madera
TTITLE7=Si Me Quisieras un Poquito
TTITLE8=De Caborca a San Luis
TTITLE9=Amigos de Parranda
EXTD=
EXTT0=
EXTT1=
EXTT2=
EXTT3=
EXTT4=
EXTT5=
EXTT6=
EXTT7=
EXTT8=
EXTT9=
PLAYORDER=
